<?xml version="1.0" encoding="utf-8" standalone="no"?>
<!DOCTYPE svg PUBLIC "-//W3C//DTD SVG 1.1//EN"
  "http://www.w3.org/Graphics/SVG/1.1/DTD/svg11.dtd">
<svg xmlns:xlink="http://www.w3.org/1999/xlink" width="720pt" height="216pt" viewBox="0 0 720 216" xmlns="http://www.w3.org/2000/svg" version="1.1">
 <metadata>
  <rdf:RDF xmlns:dc="http://purl.org/dc/elements/1.1/" xmlns:cc="http://creativecommons.org/ns#" xmlns:rdf="http://www.w3.org/1999/02/22-rdf-syntax-ns#">
   <cc:Work>
    <dc:type rdf:resource="http://purl.org/dc/dcmitype/StillImage"/>
    <dc:date>2025-03-07T13:44:01.091887</dc:date>
    <dc:format>image/svg+xml</dc:format>
    <dc:creator>
     <cc:Agent>
      <dc:title>Matplotlib v3.9.2, https://matplotlib.org/</dc:title>
     </cc:Agent>
    </dc:creator>
   </cc:Work>
  </rdf:RDF>
 </metadata>
 <defs>
  <style type="text/css">*{stroke-linejoin: round; stroke-linecap: butt}</style>
 </defs>
 <g id="figure_1">
  <g id="patch_1">
   <path d="M 0 216 
L 720 216 
L 720 0 
L 0 0 
z
" style="fill: #ffffff"/>
  </g>
  <g id="axes_1">
   <g id="patch_2">
    <path d="M 56.09 174.04 
L 241.861806 174.04 
L 241.861806 26.88 
L 56.09 26.88 
z
" style="fill: #ffffff"/>
   </g>
   <g id="matplotlib.axis_1">
    <g id="xtick_1">
     <g id="line2d_1">
      <defs>
       <path id="mdc3a87b105" d="M 0 0 
L 0 3.5 
" style="stroke: #000000; stroke-width: 0.8"/>
      </defs>
      <g>
       <use xlink:href="#mdc3a87b105" x="64.534173" y="174.04" style="stroke: #000000; stroke-width: 0.8"/>
      </g>
     </g>
     <g id="text_1">
      <!-- 0 -->
      <g transform="translate(61.352923 188.638438) scale(0.1 -0.1)">
       <defs>
        <path id="DejaVuSans-30" d="M 2034 4250 
Q 1547 4250 1301 3770 
Q 1056 3291 1056 2328 
Q 1056 1369 1301 889 
Q 1547 409 2034 409 
Q 2525 409 2770 889 
Q 3016 1369 3016 2328 
Q 3016 3291 2770 3770 
Q 2525 4250 2034 4250 
z
M 2034 4750 
Q 2819 4750 3233 4129 
Q 3647 3509 3647 2328 
Q 3647 1150 3233 529 
Q 2819 -91 2034 -91 
Q 1250 -91 836 529 
Q 422 1150 422 2328 
Q 422 3509 836 4129 
Q 1250 4750 2034 4750 
z
" transform="scale(0.015625)"/>
       </defs>
       <use xlink:href="#DejaVuSans-30"/>
      </g>
     </g>
    </g>
    <g id="xtick_2">
     <g id="line2d_2">
      <g>
       <use xlink:href="#mdc3a87b105" x="122.769849" y="174.04" style="stroke: #000000; stroke-width: 0.8"/>
      </g>
     </g>
     <g id="text_2">
      <!-- 10 -->
      <g transform="translate(116.407349 188.638438) scale(0.1 -0.1)">
       <defs>
        <path id="DejaVuSans-31" d="M 794 531 
L 1825 531 
L 1825 4091 
L 703 3866 
L 703 4441 
L 1819 4666 
L 2450 4666 
L 2450 531 
L 3481 531 
L 3481 0 
L 794 0 
L 794 531 
z
" transform="scale(0.015625)"/>
       </defs>
       <use xlink:href="#DejaVuSans-31"/>
       <use xlink:href="#DejaVuSans-30" x="63.623047"/>
      </g>
     </g>
    </g>
    <g id="xtick_3">
     <g id="line2d_3">
      <g>
       <use xlink:href="#mdc3a87b105" x="181.005525" y="174.04" style="stroke: #000000; stroke-width: 0.8"/>
      </g>
     </g>
     <g id="text_3">
      <!-- 20 -->
      <g transform="translate(174.643025 188.638438) scale(0.1 -0.1)">
       <defs>
        <path id="DejaVuSans-32" d="M 1228 531 
L 3431 531 
L 3431 0 
L 469 0 
L 469 531 
Q 828 903 1448 1529 
Q 2069 2156 2228 2338 
Q 2531 2678 2651 2914 
Q 2772 3150 2772 3378 
Q 2772 3750 2511 3984 
Q 2250 4219 1831 4219 
Q 1534 4219 1204 4116 
Q 875 4013 500 3803 
L 500 4441 
Q 881 4594 1212 4672 
Q 1544 4750 1819 4750 
Q 2544 4750 2975 4387 
Q 3406 4025 3406 3419 
Q 3406 3131 3298 2873 
Q 3191 2616 2906 2266 
Q 2828 2175 2409 1742 
Q 1991 1309 1228 531 
z
" transform="scale(0.015625)"/>
       </defs>
       <use xlink:href="#DejaVuSans-32"/>
       <use xlink:href="#DejaVuSans-30" x="63.623047"/>
      </g>
     </g>
    </g>
    <g id="xtick_4">
     <g id="line2d_4">
      <g>
       <use xlink:href="#mdc3a87b105" x="239.2412" y="174.04" style="stroke: #000000; stroke-width: 0.8"/>
      </g>
     </g>
     <g id="text_4">
      <!-- 30 -->
      <g transform="translate(232.8787 188.638438) scale(0.1 -0.1)">
       <defs>
        <path id="DejaVuSans-33" d="M 2597 2516 
Q 3050 2419 3304 2112 
Q 3559 1806 3559 1356 
Q 3559 666 3084 287 
Q 2609 -91 1734 -91 
Q 1441 -91 1130 -33 
Q 819 25 488 141 
L 488 750 
Q 750 597 1062 519 
Q 1375 441 1716 441 
Q 2309 441 2620 675 
Q 2931 909 2931 1356 
Q 2931 1769 2642 2001 
Q 2353 2234 1838 2234 
L 1294 2234 
L 1294 2753 
L 1863 2753 
Q 2328 2753 2575 2939 
Q 2822 3125 2822 3475 
Q 2822 3834 2567 4026 
Q 2313 4219 1838 4219 
Q 1578 4219 1281 4162 
Q 984 4106 628 3988 
L 628 4550 
Q 988 4650 1302 4700 
Q 1616 4750 1894 4750 
Q 2613 4750 3031 4423 
Q 3450 4097 3450 3541 
Q 3450 3153 3228 2886 
Q 3006 2619 2597 2516 
z
" transform="scale(0.015625)"/>
       </defs>
       <use xlink:href="#DejaVuSans-33"/>
       <use xlink:href="#DejaVuSans-30" x="63.623047"/>
      </g>
     </g>
    </g>
    <g id="text_5">
     <!-- #iteration -->
     <g transform="translate(123.663403 202.316563) scale(0.1 -0.1)">
      <defs>
       <path id="DejaVuSans-23" d="M 3272 2816 
L 2363 2816 
L 2100 1772 
L 3016 1772 
L 3272 2816 
z
M 2803 4594 
L 2478 3297 
L 3391 3297 
L 3719 4594 
L 4219 4594 
L 3897 3297 
L 4872 3297 
L 4872 2816 
L 3775 2816 
L 3519 1772 
L 4513 1772 
L 4513 1294 
L 3397 1294 
L 3072 0 
L 2572 0 
L 2894 1294 
L 1978 1294 
L 1656 0 
L 1153 0 
L 1478 1294 
L 494 1294 
L 494 1772 
L 1594 1772 
L 1856 2816 
L 850 2816 
L 850 3297 
L 1978 3297 
L 2297 4594 
L 2803 4594 
z
" transform="scale(0.015625)"/>
       <path id="DejaVuSans-69" d="M 603 3500 
L 1178 3500 
L 1178 0 
L 603 0 
L 603 3500 
z
M 603 4863 
L 1178 4863 
L 1178 4134 
L 603 4134 
L 603 4863 
z
" transform="scale(0.015625)"/>
       <path id="DejaVuSans-74" d="M 1172 4494 
L 1172 3500 
L 2356 3500 
L 2356 3053 
L 1172 3053 
L 1172 1153 
Q 1172 725 1289 603 
Q 1406 481 1766 481 
L 2356 481 
L 2356 0 
L 1766 0 
Q 1100 0 847 248 
Q 594 497 594 1153 
L 594 3053 
L 172 3053 
L 172 3500 
L 594 3500 
L 594 4494 
L 1172 4494 
z
" transform="scale(0.015625)"/>
       <path id="DejaVuSans-65" d="M 3597 1894 
L 3597 1613 
L 953 1613 
Q 991 1019 1311 708 
Q 1631 397 2203 397 
Q 2534 397 2845 478 
Q 3156 559 3463 722 
L 3463 178 
Q 3153 47 2828 -22 
Q 2503 -91 2169 -91 
Q 1331 -91 842 396 
Q 353 884 353 1716 
Q 353 2575 817 3079 
Q 1281 3584 2069 3584 
Q 2775 3584 3186 3129 
Q 3597 2675 3597 1894 
z
M 3022 2063 
Q 3016 2534 2758 2815 
Q 2500 3097 2075 3097 
Q 1594 3097 1305 2825 
Q 1016 2553 972 2059 
L 3022 2063 
z
" transform="scale(0.015625)"/>
       <path id="DejaVuSans-72" d="M 2631 2963 
Q 2534 3019 2420 3045 
Q 2306 3072 2169 3072 
Q 1681 3072 1420 2755 
Q 1159 2438 1159 1844 
L 1159 0 
L 581 0 
L 581 3500 
L 1159 3500 
L 1159 2956 
Q 1341 3275 1631 3429 
Q 1922 3584 2338 3584 
Q 2397 3584 2469 3576 
Q 2541 3569 2628 3553 
L 2631 2963 
z
" transform="scale(0.015625)"/>
       <path id="DejaVuSans-61" d="M 2194 1759 
Q 1497 1759 1228 1600 
Q 959 1441 959 1056 
Q 959 750 1161 570 
Q 1363 391 1709 391 
Q 2188 391 2477 730 
Q 2766 1069 2766 1631 
L 2766 1759 
L 2194 1759 
z
M 3341 1997 
L 3341 0 
L 2766 0 
L 2766 531 
Q 2569 213 2275 61 
Q 1981 -91 1556 -91 
Q 1019 -91 701 211 
Q 384 513 384 1019 
Q 384 1609 779 1909 
Q 1175 2209 1959 2209 
L 2766 2209 
L 2766 2266 
Q 2766 2663 2505 2880 
Q 2244 3097 1772 3097 
Q 1472 3097 1187 3025 
Q 903 2953 641 2809 
L 641 3341 
Q 956 3463 1253 3523 
Q 1550 3584 1831 3584 
Q 2591 3584 2966 3190 
Q 3341 2797 3341 1997 
z
" transform="scale(0.015625)"/>
       <path id="DejaVuSans-6f" d="M 1959 3097 
Q 1497 3097 1228 2736 
Q 959 2375 959 1747 
Q 959 1119 1226 758 
Q 1494 397 1959 397 
Q 2419 397 2687 759 
Q 2956 1122 2956 1747 
Q 2956 2369 2687 2733 
Q 2419 3097 1959 3097 
z
M 1959 3584 
Q 2709 3584 3137 3096 
Q 3566 2609 3566 1747 
Q 3566 888 3137 398 
Q 2709 -91 1959 -91 
Q 1206 -91 779 398 
Q 353 888 353 1747 
Q 353 2609 779 3096 
Q 1206 3584 1959 3584 
z
" transform="scale(0.015625)"/>
       <path id="DejaVuSans-6e" d="M 3513 2113 
L 3513 0 
L 2938 0 
L 2938 2094 
Q 2938 2591 2744 2837 
Q 2550 3084 2163 3084 
Q 1697 3084 1428 2787 
Q 1159 2491 1159 1978 
L 1159 0 
L 581 0 
L 581 3500 
L 1159 3500 
L 1159 2956 
Q 1366 3272 1645 3428 
Q 1925 3584 2291 3584 
Q 2894 3584 3203 3211 
Q 3513 2838 3513 2113 
z
" transform="scale(0.015625)"/>
      </defs>
      <use xlink:href="#DejaVuSans-23"/>
      <use xlink:href="#DejaVuSans-69" x="83.789062"/>
      <use xlink:href="#DejaVuSans-74" x="111.572266"/>
      <use xlink:href="#DejaVuSans-65" x="150.78125"/>
      <use xlink:href="#DejaVuSans-72" x="212.304688"/>
      <use xlink:href="#DejaVuSans-61" x="253.417969"/>
      <use xlink:href="#DejaVuSans-74" x="314.697266"/>
      <use xlink:href="#DejaVuSans-69" x="353.90625"/>
      <use xlink:href="#DejaVuSans-6f" x="381.689453"/>
      <use xlink:href="#DejaVuSans-6e" x="442.871094"/>
     </g>
    </g>
   </g>
   <g id="matplotlib.axis_2">
    <g id="ytick_1">
     <g id="line2d_5">
      <defs>
       <path id="m0db7e5be7f" d="M 0 0 
L -3.5 0 
" style="stroke: #000000; stroke-width: 0.8"/>
      </defs>
      <g>
       <use xlink:href="#m0db7e5be7f" x="56.09" y="150.182716" style="stroke: #000000; stroke-width: 0.8"/>
      </g>
     </g>
     <g id="text_6">
      <!-- −1.0 -->
      <g transform="translate(24.807188 153.981935) scale(0.1 -0.1)">
       <defs>
        <path id="DejaVuSans-2212" d="M 678 2272 
L 4684 2272 
L 4684 1741 
L 678 1741 
L 678 2272 
z
" transform="scale(0.015625)"/>
        <path id="DejaVuSans-2e" d="M 684 794 
L 1344 794 
L 1344 0 
L 684 0 
L 684 794 
z
" transform="scale(0.015625)"/>
       </defs>
       <use xlink:href="#DejaVuSans-2212"/>
       <use xlink:href="#DejaVuSans-31" x="83.789062"/>
       <use xlink:href="#DejaVuSans-2e" x="147.412109"/>
       <use xlink:href="#DejaVuSans-30" x="179.199219"/>
      </g>
     </g>
    </g>
    <g id="ytick_2">
     <g id="line2d_6">
      <g>
       <use xlink:href="#m0db7e5be7f" x="56.09" y="124.935373" style="stroke: #000000; stroke-width: 0.8"/>
      </g>
     </g>
     <g id="text_7">
      <!-- −0.8 -->
      <g transform="translate(24.807188 128.734592) scale(0.1 -0.1)">
       <defs>
        <path id="DejaVuSans-38" d="M 2034 2216 
Q 1584 2216 1326 1975 
Q 1069 1734 1069 1313 
Q 1069 891 1326 650 
Q 1584 409 2034 409 
Q 2484 409 2743 651 
Q 3003 894 3003 1313 
Q 3003 1734 2745 1975 
Q 2488 2216 2034 2216 
z
M 1403 2484 
Q 997 2584 770 2862 
Q 544 3141 544 3541 
Q 544 4100 942 4425 
Q 1341 4750 2034 4750 
Q 2731 4750 3128 4425 
Q 3525 4100 3525 3541 
Q 3525 3141 3298 2862 
Q 3072 2584 2669 2484 
Q 3125 2378 3379 2068 
Q 3634 1759 3634 1313 
Q 3634 634 3220 271 
Q 2806 -91 2034 -91 
Q 1263 -91 848 271 
Q 434 634 434 1313 
Q 434 1759 690 2068 
Q 947 2378 1403 2484 
z
M 1172 3481 
Q 1172 3119 1398 2916 
Q 1625 2713 2034 2713 
Q 2441 2713 2670 2916 
Q 2900 3119 2900 3481 
Q 2900 3844 2670 4047 
Q 2441 4250 2034 4250 
Q 1625 4250 1398 4047 
Q 1172 3844 1172 3481 
z
" transform="scale(0.015625)"/>
       </defs>
       <use xlink:href="#DejaVuSans-2212"/>
       <use xlink:href="#DejaVuSans-30" x="83.789062"/>
       <use xlink:href="#DejaVuSans-2e" x="147.412109"/>
       <use xlink:href="#DejaVuSans-38" x="179.199219"/>
      </g>
     </g>
    </g>
    <g id="ytick_3">
     <g id="line2d_7">
      <g>
       <use xlink:href="#m0db7e5be7f" x="56.09" y="99.68803" style="stroke: #000000; stroke-width: 0.8"/>
      </g>
     </g>
     <g id="text_8">
      <!-- −0.6 -->
      <g transform="translate(24.807188 103.487249) scale(0.1 -0.1)">
       <defs>
        <path id="DejaVuSans-36" d="M 2113 2584 
Q 1688 2584 1439 2293 
Q 1191 2003 1191 1497 
Q 1191 994 1439 701 
Q 1688 409 2113 409 
Q 2538 409 2786 701 
Q 3034 994 3034 1497 
Q 3034 2003 2786 2293 
Q 2538 2584 2113 2584 
z
M 3366 4563 
L 3366 3988 
Q 3128 4100 2886 4159 
Q 2644 4219 2406 4219 
Q 1781 4219 1451 3797 
Q 1122 3375 1075 2522 
Q 1259 2794 1537 2939 
Q 1816 3084 2150 3084 
Q 2853 3084 3261 2657 
Q 3669 2231 3669 1497 
Q 3669 778 3244 343 
Q 2819 -91 2113 -91 
Q 1303 -91 875 529 
Q 447 1150 447 2328 
Q 447 3434 972 4092 
Q 1497 4750 2381 4750 
Q 2619 4750 2861 4703 
Q 3103 4656 3366 4563 
z
" transform="scale(0.015625)"/>
       </defs>
       <use xlink:href="#DejaVuSans-2212"/>
       <use xlink:href="#DejaVuSans-30" x="83.789062"/>
       <use xlink:href="#DejaVuSans-2e" x="147.412109"/>
       <use xlink:href="#DejaVuSans-36" x="179.199219"/>
      </g>
     </g>
    </g>
    <g id="ytick_4">
     <g id="line2d_8">
      <g>
       <use xlink:href="#m0db7e5be7f" x="56.09" y="74.440687" style="stroke: #000000; stroke-width: 0.8"/>
      </g>
     </g>
     <g id="text_9">
      <!-- −0.4 -->
      <g transform="translate(24.807188 78.239906) scale(0.1 -0.1)">
       <defs>
        <path id="DejaVuSans-34" d="M 2419 4116 
L 825 1625 
L 2419 1625 
L 2419 4116 
z
M 2253 4666 
L 3047 4666 
L 3047 1625 
L 3713 1625 
L 3713 1100 
L 3047 1100 
L 3047 0 
L 2419 0 
L 2419 1100 
L 313 1100 
L 313 1709 
L 2253 4666 
z
" transform="scale(0.015625)"/>
       </defs>
       <use xlink:href="#DejaVuSans-2212"/>
       <use xlink:href="#DejaVuSans-30" x="83.789062"/>
       <use xlink:href="#DejaVuSans-2e" x="147.412109"/>
       <use xlink:href="#DejaVuSans-34" x="179.199219"/>
      </g>
     </g>
    </g>
    <g id="ytick_5">
     <g id="line2d_9">
      <g>
       <use xlink:href="#m0db7e5be7f" x="56.09" y="49.193344" style="stroke: #000000; stroke-width: 0.8"/>
      </g>
     </g>
     <g id="text_10">
      <!-- −0.2 -->
      <g transform="translate(24.807188 52.992563) scale(0.1 -0.1)">
       <use xlink:href="#DejaVuSans-2212"/>
       <use xlink:href="#DejaVuSans-30" x="83.789062"/>
       <use xlink:href="#DejaVuSans-2e" x="147.412109"/>
       <use xlink:href="#DejaVuSans-32" x="179.199219"/>
      </g>
     </g>
    </g>
    <g id="text_11">
     <!-- Loss -->
     <g transform="translate(18.7275 111.427188) rotate(-90) scale(0.1 -0.1)">
      <defs>
       <path id="DejaVuSans-4c" d="M 628 4666 
L 1259 4666 
L 1259 531 
L 3531 531 
L 3531 0 
L 628 0 
L 628 4666 
z
" transform="scale(0.015625)"/>
       <path id="DejaVuSans-73" d="M 2834 3397 
L 2834 2853 
Q 2591 2978 2328 3040 
Q 2066 3103 1784 3103 
Q 1356 3103 1142 2972 
Q 928 2841 928 2578 
Q 928 2378 1081 2264 
Q 1234 2150 1697 2047 
L 1894 2003 
Q 2506 1872 2764 1633 
Q 3022 1394 3022 966 
Q 3022 478 2636 193 
Q 2250 -91 1575 -91 
Q 1294 -91 989 -36 
Q 684 19 347 128 
L 347 722 
Q 666 556 975 473 
Q 1284 391 1588 391 
Q 1994 391 2212 530 
Q 2431 669 2431 922 
Q 2431 1156 2273 1281 
Q 2116 1406 1581 1522 
L 1381 1569 
Q 847 1681 609 1914 
Q 372 2147 372 2553 
Q 372 3047 722 3315 
Q 1072 3584 1716 3584 
Q 2034 3584 2315 3537 
Q 2597 3491 2834 3397 
z
" transform="scale(0.015625)"/>
      </defs>
      <use xlink:href="#DejaVuSans-4c"/>
      <use xlink:href="#DejaVuSans-6f" x="53.962891"/>
      <use xlink:href="#DejaVuSans-73" x="115.144531"/>
      <use xlink:href="#DejaVuSans-73" x="167.244141"/>
     </g>
    </g>
   </g>
   <g id="line2d_10">
    <path d="M 64.534173 35.988107 
L 70.357741 53.813256 
L 76.181308 71.813366 
L 82.004876 89.417846 
L 87.828443 105.846971 
L 93.652011 120.732815 
L 99.475578 133.450328 
L 105.299146 142.936808 
L 111.122714 148.245006 
L 116.946281 149.325179 
L 122.769849 147.419285 
L 128.593416 144.554457 
L 134.416984 142.407678 
L 140.240552 141.684108 
L 146.064119 142.330673 
L 151.887687 143.964126 
L 157.711254 146.141484 
L 163.534822 148.480041 
L 169.358389 150.687485 
L 175.181957 152.539664 
L 181.005525 153.86258 
L 186.829092 154.563014 
L 192.65266 154.679775 
L 198.476227 154.390245 
L 204.299795 153.949155 
L 210.123363 153.598778 
L 215.94693 153.500976 
L 221.770498 153.710054 
L 227.594065 154.180633 
L 233.417633 154.798827 
" clip-path="url(#pa9a4fea1a1)" style="fill: none; stroke: #1f77b4; stroke-width: 1.5; stroke-linecap: square"/>
   </g>
   <g id="line2d_11">
    <path d="M 64.534173 76.233739 
L 70.357741 85.890826 
L 76.181308 94.79738 
L 82.004876 101.599633 
L 87.828443 105.97325 
L 93.652011 109.236019 
L 99.475578 112.731485 
L 105.299146 116.678001 
L 111.122714 120.416973 
L 116.946281 123.381466 
L 122.769849 125.601503 
L 128.593416 127.490622 
L 134.416984 129.499058 
L 140.240552 131.986333 
L 146.064119 135.154979 
L 151.887687 138.921497 
L 157.711254 142.869789 
L 163.534822 146.390963 
L 169.358389 148.9524 
L 175.181957 150.369432 
L 181.005525 150.880547 
L 186.829092 150.952449 
L 192.65266 151.020262 
L 198.476227 151.328889 
L 204.299795 151.903664 
L 210.123363 152.620998 
L 215.94693 153.328412 
L 221.770498 153.941534 
L 227.594065 154.451843 
L 233.417633 154.868949 
" clip-path="url(#pa9a4fea1a1)" style="fill: none; stroke: #ff7f0e; stroke-width: 1.5; stroke-linecap: square"/>
   </g>
   <g id="line2d_12">
    <path d="M 64.534173 105.603712 
L 70.357741 112.625199 
L 76.181308 115.902314 
L 82.004876 118.440756 
L 87.828443 124.659135 
L 93.652011 139.3147 
L 99.475578 144.695451 
L 105.299146 153.248418 
L 111.122714 151.675754 
L 116.946281 150.780768 
L 122.769849 154.09127 
L 128.593416 152.811501 
L 134.416984 153.844004 
L 140.240552 154.320522 
L 146.064119 156.324242 
L 151.887687 154.909825 
L 157.711254 156.076558 
L 163.534822 156.102719 
L 169.358389 156.794918 
L 175.181957 156.227452 
L 181.005525 156.623796 
L 186.829092 156.755586 
L 192.65266 156.906242 
L 198.476227 156.722286 
L 204.299795 156.91427 
L 210.123363 156.908452 
L 215.94693 156.965205 
L 221.770498 156.928046 
L 227.594065 156.993957 
L 233.417633 156.995036 
" clip-path="url(#pa9a4fea1a1)" style="fill: none; stroke: #2ca02c; stroke-width: 1.5; stroke-linecap: square"/>
   </g>
   <g id="line2d_13">
    <path d="M 64.534173 98.888535 
L 70.357741 112.505472 
L 76.181308 120.649819 
L 82.004876 127.026653 
L 87.828443 133.355315 
L 93.652011 139.185676 
L 99.475578 144.025141 
L 105.299146 147.781522 
L 111.122714 150.565641 
L 116.946281 152.559676 
L 122.769849 153.938372 
L 128.593416 154.855529 
L 134.416984 155.456593 
L 140.240552 155.867742 
L 146.064119 156.175668 
L 151.887687 156.424438 
L 157.711254 156.62749 
L 163.534822 156.783555 
L 169.358389 156.890436 
L 175.181957 156.952934 
L 181.005525 156.983204 
L 186.829092 156.995853 
L 192.65266 157.002508 
L 198.476227 157.009245 
L 204.299795 157.017277 
L 210.123363 157.025292 
L 215.94693 157.031716 
L 221.770498 157.035894 
L 227.594065 157.038164 
L 233.417633 157.039335 
" clip-path="url(#pa9a4fea1a1)" style="fill: none; stroke: #d62728; stroke-width: 1.5; stroke-linecap: square"/>
   </g>
   <g id="line2d_14">
    <path d="M 64.534173 85.793942 
L 70.357741 86.838631 
L 76.181308 87.920396 
L 82.004876 89.041097 
L 87.828443 89.231108 
L 93.652011 89.517183 
L 99.475578 89.8841 
L 105.299146 90.324199 
L 111.122714 90.833144 
L 116.946281 91.408533 
L 122.769849 92.049239 
L 128.593416 92.755038 
L 134.416984 93.526367 
L 140.240552 94.364152 
L 146.064119 95.269668 
L 151.887687 96.244416 
L 157.711254 97.290016 
L 163.534822 98.408093 
L 169.358389 99.600157 
L 175.181957 100.867486 
L 181.005525 102.210994 
L 186.829092 103.631083 
L 192.65266 105.127494 
L 198.476227 106.69915 
L 204.299795 108.343988 
L 210.123363 110.0588 
L 215.94693 111.839083 
L 221.770498 113.678914 
L 227.594065 115.570859 
L 233.417633 117.505931 
" clip-path="url(#pa9a4fea1a1)" style="fill: none; stroke: #9467bd; stroke-width: 1.5; stroke-linecap: square"/>
   </g>
   <g id="line2d_15">
    <path d="M 64.534173 33.569091 
L 70.357741 48.418433 
L 76.181308 59.513087 
L 82.004876 66.733682 
L 87.828443 71.298995 
L 93.652011 74.551061 
L 99.475578 77.30484 
L 105.299146 80.030748 
L 111.122714 83.186273 
L 116.946281 87.271151 
L 122.769849 92.865778 
L 128.593416 100.511225 
L 134.416984 110.360637 
L 140.240552 121.827647 
L 146.064119 133.522282 
L 151.887687 143.64769 
L 157.711254 150.753926 
L 163.534822 154.476013 
L 169.358389 155.696433 
L 175.181957 155.818267 
L 181.005525 155.818822 
L 186.829092 155.996294 
L 192.65266 156.278111 
L 198.476227 156.531904 
L 204.299795 156.694671 
L 210.123363 156.776032 
L 215.94693 156.815742 
L 221.770498 156.847355 
L 227.594065 156.885323 
L 233.417633 156.928875 
" clip-path="url(#pa9a4fea1a1)" style="fill: none; stroke: #8c564b; stroke-width: 1.5; stroke-linecap: square"/>
   </g>
   <g id="line2d_16">
    <path d="M 64.534173 74.394424 
L 70.357741 90.603176 
L 76.181308 103.945569 
L 82.004876 113.684513 
L 87.828443 119.914692 
L 93.652011 123.676242 
L 99.475578 126.311529 
L 105.299146 128.607507 
L 111.122714 131.010082 
L 116.946281 133.709745 
L 122.769849 136.677587 
L 128.593416 139.719461 
L 134.416984 142.626289 
L 140.240552 145.240451 
L 146.064119 147.481622 
L 151.887687 149.339474 
L 157.711254 150.84963 
L 163.534822 152.068173 
L 169.358389 153.052937 
L 175.181957 153.853243 
L 181.005525 154.506471 
L 186.829092 155.039059 
L 192.65266 155.469618 
L 198.476227 155.812404 
L 204.299795 156.079969 
L 210.123363 156.284566 
L 215.94693 156.43838 
L 221.770498 156.553037 
L 227.594065 156.638867 
L 233.417633 156.704317 
" clip-path="url(#pa9a4fea1a1)" style="fill: none; stroke: #e377c2; stroke-width: 1.5; stroke-linecap: square"/>
   </g>
   <g id="line2d_17">
    <path d="M 56.09 167.350909 
L 241.861806 167.350909 
" clip-path="url(#pa9a4fea1a1)" style="fill: none; stroke-dasharray: 1.5,2.475; stroke-dashoffset: 0; stroke: #ff0000; stroke-width: 1.5"/>
   </g>
   <g id="patch_3">
    <path d="M 56.09 174.04 
L 56.09 26.88 
" style="fill: none; stroke: #000000; stroke-width: 0.8; stroke-linejoin: miter; stroke-linecap: square"/>
   </g>
   <g id="patch_4">
    <path d="M 241.861806 174.04 
L 241.861806 26.88 
" style="fill: none; stroke: #000000; stroke-width: 0.8; stroke-linejoin: miter; stroke-linecap: square"/>
   </g>
   <g id="patch_5">
    <path d="M 56.09 174.04 
L 241.861806 174.04 
" style="fill: none; stroke: #000000; stroke-width: 0.8; stroke-linejoin: miter; stroke-linecap: square"/>
   </g>
   <g id="patch_6">
    <path d="M 56.09 26.88 
L 241.861806 26.88 
" style="fill: none; stroke: #000000; stroke-width: 0.8; stroke-linejoin: miter; stroke-linecap: square"/>
   </g>
   <g id="text_12">
    <!-- VQE -->
    <g transform="translate(136.357153 20.88) scale(0.12 -0.12)">
     <defs>
      <path id="DejaVuSans-56" d="M 1831 0 
L 50 4666 
L 709 4666 
L 2188 738 
L 3669 4666 
L 4325 4666 
L 2547 0 
L 1831 0 
z
" transform="scale(0.015625)"/>
      <path id="DejaVuSans-51" d="M 2522 4238 
Q 1834 4238 1429 3725 
Q 1025 3213 1025 2328 
Q 1025 1447 1429 934 
Q 1834 422 2522 422 
Q 3209 422 3611 934 
Q 4013 1447 4013 2328 
Q 4013 3213 3611 3725 
Q 3209 4238 2522 4238 
z
M 3406 84 
L 4238 -825 
L 3475 -825 
L 2784 -78 
Q 2681 -84 2626 -87 
Q 2572 -91 2522 -91 
Q 1538 -91 948 567 
Q 359 1225 359 2328 
Q 359 3434 948 4092 
Q 1538 4750 2522 4750 
Q 3503 4750 4090 4092 
Q 4678 3434 4678 2328 
Q 4678 1516 4351 937 
Q 4025 359 3406 84 
z
" transform="scale(0.015625)"/>
      <path id="DejaVuSans-45" d="M 628 4666 
L 3578 4666 
L 3578 4134 
L 1259 4134 
L 1259 2753 
L 3481 2753 
L 3481 2222 
L 1259 2222 
L 1259 531 
L 3634 531 
L 3634 0 
L 628 0 
L 628 4666 
z
" transform="scale(0.015625)"/>
     </defs>
     <use xlink:href="#DejaVuSans-56"/>
     <use xlink:href="#DejaVuSans-51" x="68.408203"/>
     <use xlink:href="#DejaVuSans-45" x="147.119141"/>
    </g>
   </g>
   <g id="legend_1">
    <g id="patch_7">
     <path d="M 107.758681 137.626875 
L 234.861806 137.626875 
Q 236.861806 137.626875 236.861806 135.626875 
L 236.861806 33.88 
Q 236.861806 31.88 234.861806 31.88 
L 107.758681 31.88 
Q 105.758681 31.88 105.758681 33.88 
L 105.758681 135.626875 
Q 105.758681 137.626875 107.758681 137.626875 
z
" style="fill: #ffffff; opacity: 0.8; stroke: #cccccc; stroke-linejoin: miter"/>
    </g>
    <g id="line2d_18">
     <path d="M 109.758681 39.978437 
L 119.758681 39.978437 
L 129.758681 39.978437 
" style="fill: none; stroke: #1f77b4; stroke-width: 1.5; stroke-linecap: square"/>
    </g>
    <g id="text_13">
     <!-- AdamOptimizer -->
     <g transform="translate(137.758681 43.478437) scale(0.1 -0.1)">
      <defs>
       <path id="DejaVuSans-41" d="M 2188 4044 
L 1331 1722 
L 3047 1722 
L 2188 4044 
z
M 1831 4666 
L 2547 4666 
L 4325 0 
L 3669 0 
L 3244 1197 
L 1141 1197 
L 716 0 
L 50 0 
L 1831 4666 
z
" transform="scale(0.015625)"/>
       <path id="DejaVuSans-64" d="M 2906 2969 
L 2906 4863 
L 3481 4863 
L 3481 0 
L 2906 0 
L 2906 525 
Q 2725 213 2448 61 
Q 2172 -91 1784 -91 
Q 1150 -91 751 415 
Q 353 922 353 1747 
Q 353 2572 751 3078 
Q 1150 3584 1784 3584 
Q 2172 3584 2448 3432 
Q 2725 3281 2906 2969 
z
M 947 1747 
Q 947 1113 1208 752 
Q 1469 391 1925 391 
Q 2381 391 2643 752 
Q 2906 1113 2906 1747 
Q 2906 2381 2643 2742 
Q 2381 3103 1925 3103 
Q 1469 3103 1208 2742 
Q 947 2381 947 1747 
z
" transform="scale(0.015625)"/>
       <path id="DejaVuSans-6d" d="M 3328 2828 
Q 3544 3216 3844 3400 
Q 4144 3584 4550 3584 
Q 5097 3584 5394 3201 
Q 5691 2819 5691 2113 
L 5691 0 
L 5113 0 
L 5113 2094 
Q 5113 2597 4934 2840 
Q 4756 3084 4391 3084 
Q 3944 3084 3684 2787 
Q 3425 2491 3425 1978 
L 3425 0 
L 2847 0 
L 2847 2094 
Q 2847 2600 2669 2842 
Q 2491 3084 2119 3084 
Q 1678 3084 1418 2786 
Q 1159 2488 1159 1978 
L 1159 0 
L 581 0 
L 581 3500 
L 1159 3500 
L 1159 2956 
Q 1356 3278 1631 3431 
Q 1906 3584 2284 3584 
Q 2666 3584 2933 3390 
Q 3200 3197 3328 2828 
z
" transform="scale(0.015625)"/>
       <path id="DejaVuSans-4f" d="M 2522 4238 
Q 1834 4238 1429 3725 
Q 1025 3213 1025 2328 
Q 1025 1447 1429 934 
Q 1834 422 2522 422 
Q 3209 422 3611 934 
Q 4013 1447 4013 2328 
Q 4013 3213 3611 3725 
Q 3209 4238 2522 4238 
z
M 2522 4750 
Q 3503 4750 4090 4092 
Q 4678 3434 4678 2328 
Q 4678 1225 4090 567 
Q 3503 -91 2522 -91 
Q 1538 -91 948 565 
Q 359 1222 359 2328 
Q 359 3434 948 4092 
Q 1538 4750 2522 4750 
z
" transform="scale(0.015625)"/>
       <path id="DejaVuSans-70" d="M 1159 525 
L 1159 -1331 
L 581 -1331 
L 581 3500 
L 1159 3500 
L 1159 2969 
Q 1341 3281 1617 3432 
Q 1894 3584 2278 3584 
Q 2916 3584 3314 3078 
Q 3713 2572 3713 1747 
Q 3713 922 3314 415 
Q 2916 -91 2278 -91 
Q 1894 -91 1617 61 
Q 1341 213 1159 525 
z
M 3116 1747 
Q 3116 2381 2855 2742 
Q 2594 3103 2138 3103 
Q 1681 3103 1420 2742 
Q 1159 2381 1159 1747 
Q 1159 1113 1420 752 
Q 1681 391 2138 391 
Q 2594 391 2855 752 
Q 3116 1113 3116 1747 
z
" transform="scale(0.015625)"/>
       <path id="DejaVuSans-7a" d="M 353 3500 
L 3084 3500 
L 3084 2975 
L 922 459 
L 3084 459 
L 3084 0 
L 275 0 
L 275 525 
L 2438 3041 
L 353 3041 
L 353 3500 
z
" transform="scale(0.015625)"/>
      </defs>
      <use xlink:href="#DejaVuSans-41"/>
      <use xlink:href="#DejaVuSans-64" x="66.658203"/>
      <use xlink:href="#DejaVuSans-61" x="130.134766"/>
      <use xlink:href="#DejaVuSans-6d" x="191.414062"/>
      <use xlink:href="#DejaVuSans-4f" x="288.826172"/>
      <use xlink:href="#DejaVuSans-70" x="367.537109"/>
      <use xlink:href="#DejaVuSans-74" x="431.013672"/>
      <use xlink:href="#DejaVuSans-69" x="470.222656"/>
      <use xlink:href="#DejaVuSans-6d" x="498.005859"/>
      <use xlink:href="#DejaVuSans-69" x="595.417969"/>
      <use xlink:href="#DejaVuSans-7a" x="623.201172"/>
      <use xlink:href="#DejaVuSans-65" x="675.691406"/>
      <use xlink:href="#DejaVuSans-72" x="737.214844"/>
     </g>
    </g>
    <g id="line2d_19">
     <path d="M 109.758681 54.656563 
L 119.758681 54.656563 
L 129.758681 54.656563 
" style="fill: none; stroke: #ff7f0e; stroke-width: 1.5; stroke-linecap: square"/>
    </g>
    <g id="text_14">
     <!-- AdamWOptimizer -->
     <g transform="translate(137.758681 58.156563) scale(0.1 -0.1)">
      <defs>
       <path id="DejaVuSans-57" d="M 213 4666 
L 850 4666 
L 1831 722 
L 2809 4666 
L 3519 4666 
L 4500 722 
L 5478 4666 
L 6119 4666 
L 4947 0 
L 4153 0 
L 3169 4050 
L 2175 0 
L 1381 0 
L 213 4666 
z
" transform="scale(0.015625)"/>
      </defs>
      <use xlink:href="#DejaVuSans-41"/>
      <use xlink:href="#DejaVuSans-64" x="66.658203"/>
      <use xlink:href="#DejaVuSans-61" x="130.134766"/>
      <use xlink:href="#DejaVuSans-6d" x="191.414062"/>
      <use xlink:href="#DejaVuSans-57" x="288.826172"/>
      <use xlink:href="#DejaVuSans-4f" x="387.703125"/>
      <use xlink:href="#DejaVuSans-70" x="466.414062"/>
      <use xlink:href="#DejaVuSans-74" x="529.890625"/>
      <use xlink:href="#DejaVuSans-69" x="569.099609"/>
      <use xlink:href="#DejaVuSans-6d" x="596.882812"/>
      <use xlink:href="#DejaVuSans-69" x="694.294922"/>
      <use xlink:href="#DejaVuSans-7a" x="722.078125"/>
      <use xlink:href="#DejaVuSans-65" x="774.568359"/>
      <use xlink:href="#DejaVuSans-72" x="836.091797"/>
     </g>
    </g>
    <g id="line2d_20">
     <path d="M 109.758681 69.334687 
L 119.758681 69.334687 
L 129.758681 69.334687 
" style="fill: none; stroke: #2ca02c; stroke-width: 1.5; stroke-linecap: square"/>
    </g>
    <g id="text_15">
     <!-- AMSGradOptimizer -->
     <g transform="translate(137.758681 72.834687) scale(0.1 -0.1)">
      <defs>
       <path id="DejaVuSans-4d" d="M 628 4666 
L 1569 4666 
L 2759 1491 
L 3956 4666 
L 4897 4666 
L 4897 0 
L 4281 0 
L 4281 4097 
L 3078 897 
L 2444 897 
L 1241 4097 
L 1241 0 
L 628 0 
L 628 4666 
z
" transform="scale(0.015625)"/>
       <path id="DejaVuSans-53" d="M 3425 4513 
L 3425 3897 
Q 3066 4069 2747 4153 
Q 2428 4238 2131 4238 
Q 1616 4238 1336 4038 
Q 1056 3838 1056 3469 
Q 1056 3159 1242 3001 
Q 1428 2844 1947 2747 
L 2328 2669 
Q 3034 2534 3370 2195 
Q 3706 1856 3706 1288 
Q 3706 609 3251 259 
Q 2797 -91 1919 -91 
Q 1588 -91 1214 -16 
Q 841 59 441 206 
L 441 856 
Q 825 641 1194 531 
Q 1563 422 1919 422 
Q 2459 422 2753 634 
Q 3047 847 3047 1241 
Q 3047 1584 2836 1778 
Q 2625 1972 2144 2069 
L 1759 2144 
Q 1053 2284 737 2584 
Q 422 2884 422 3419 
Q 422 4038 858 4394 
Q 1294 4750 2059 4750 
Q 2388 4750 2728 4690 
Q 3069 4631 3425 4513 
z
" transform="scale(0.015625)"/>
       <path id="DejaVuSans-47" d="M 3809 666 
L 3809 1919 
L 2778 1919 
L 2778 2438 
L 4434 2438 
L 4434 434 
Q 4069 175 3628 42 
Q 3188 -91 2688 -91 
Q 1594 -91 976 548 
Q 359 1188 359 2328 
Q 359 3472 976 4111 
Q 1594 4750 2688 4750 
Q 3144 4750 3555 4637 
Q 3966 4525 4313 4306 
L 4313 3634 
Q 3963 3931 3569 4081 
Q 3175 4231 2741 4231 
Q 1884 4231 1454 3753 
Q 1025 3275 1025 2328 
Q 1025 1384 1454 906 
Q 1884 428 2741 428 
Q 3075 428 3337 486 
Q 3600 544 3809 666 
z
" transform="scale(0.015625)"/>
      </defs>
      <use xlink:href="#DejaVuSans-41"/>
      <use xlink:href="#DejaVuSans-4d" x="68.408203"/>
      <use xlink:href="#DejaVuSans-53" x="154.6875"/>
      <use xlink:href="#DejaVuSans-47" x="218.164062"/>
      <use xlink:href="#DejaVuSans-72" x="295.654297"/>
      <use xlink:href="#DejaVuSans-61" x="336.767578"/>
      <use xlink:href="#DejaVuSans-64" x="398.046875"/>
      <use xlink:href="#DejaVuSans-4f" x="461.523438"/>
      <use xlink:href="#DejaVuSans-70" x="540.234375"/>
      <use xlink:href="#DejaVuSans-74" x="603.710938"/>
      <use xlink:href="#DejaVuSans-69" x="642.919922"/>
      <use xlink:href="#DejaVuSans-6d" x="670.703125"/>
      <use xlink:href="#DejaVuSans-69" x="768.115234"/>
      <use xlink:href="#DejaVuSans-7a" x="795.898438"/>
      <use xlink:href="#DejaVuSans-65" x="848.388672"/>
      <use xlink:href="#DejaVuSans-72" x="909.912109"/>
     </g>
    </g>
    <g id="line2d_21">
     <path d="M 109.758681 84.012812 
L 119.758681 84.012812 
L 129.758681 84.012812 
" style="fill: none; stroke: #d62728; stroke-width: 1.5; stroke-linecap: square"/>
    </g>
    <g id="text_16">
     <!-- NadamOptimizer -->
     <g transform="translate(137.758681 87.512812) scale(0.1 -0.1)">
      <defs>
       <path id="DejaVuSans-4e" d="M 628 4666 
L 1478 4666 
L 3547 763 
L 3547 4666 
L 4159 4666 
L 4159 0 
L 3309 0 
L 1241 3903 
L 1241 0 
L 628 0 
L 628 4666 
z
" transform="scale(0.015625)"/>
      </defs>
      <use xlink:href="#DejaVuSans-4e"/>
      <use xlink:href="#DejaVuSans-61" x="74.804688"/>
      <use xlink:href="#DejaVuSans-64" x="136.083984"/>
      <use xlink:href="#DejaVuSans-61" x="199.560547"/>
      <use xlink:href="#DejaVuSans-6d" x="260.839844"/>
      <use xlink:href="#DejaVuSans-4f" x="358.251953"/>
      <use xlink:href="#DejaVuSans-70" x="436.962891"/>
      <use xlink:href="#DejaVuSans-74" x="500.439453"/>
      <use xlink:href="#DejaVuSans-69" x="539.648438"/>
      <use xlink:href="#DejaVuSans-6d" x="567.431641"/>
      <use xlink:href="#DejaVuSans-69" x="664.84375"/>
      <use xlink:href="#DejaVuSans-7a" x="692.626953"/>
      <use xlink:href="#DejaVuSans-65" x="745.117188"/>
      <use xlink:href="#DejaVuSans-72" x="806.640625"/>
     </g>
    </g>
    <g id="line2d_22">
     <path d="M 109.758681 98.690937 
L 119.758681 98.690937 
L 129.758681 98.690937 
" style="fill: none; stroke: #9467bd; stroke-width: 1.5; stroke-linecap: square"/>
    </g>
    <g id="text_17">
     <!-- RAdamOptimizer -->
     <g transform="translate(137.758681 102.190937) scale(0.1 -0.1)">
      <defs>
       <path id="DejaVuSans-52" d="M 2841 2188 
Q 3044 2119 3236 1894 
Q 3428 1669 3622 1275 
L 4263 0 
L 3584 0 
L 2988 1197 
Q 2756 1666 2539 1819 
Q 2322 1972 1947 1972 
L 1259 1972 
L 1259 0 
L 628 0 
L 628 4666 
L 2053 4666 
Q 2853 4666 3247 4331 
Q 3641 3997 3641 3322 
Q 3641 2881 3436 2590 
Q 3231 2300 2841 2188 
z
M 1259 4147 
L 1259 2491 
L 2053 2491 
Q 2509 2491 2742 2702 
Q 2975 2913 2975 3322 
Q 2975 3731 2742 3939 
Q 2509 4147 2053 4147 
L 1259 4147 
z
" transform="scale(0.015625)"/>
      </defs>
      <use xlink:href="#DejaVuSans-52"/>
      <use xlink:href="#DejaVuSans-41" x="65.482422"/>
      <use xlink:href="#DejaVuSans-64" x="132.140625"/>
      <use xlink:href="#DejaVuSans-61" x="195.617188"/>
      <use xlink:href="#DejaVuSans-6d" x="256.896484"/>
      <use xlink:href="#DejaVuSans-4f" x="354.308594"/>
      <use xlink:href="#DejaVuSans-70" x="433.019531"/>
      <use xlink:href="#DejaVuSans-74" x="496.496094"/>
      <use xlink:href="#DejaVuSans-69" x="535.705078"/>
      <use xlink:href="#DejaVuSans-6d" x="563.488281"/>
      <use xlink:href="#DejaVuSans-69" x="660.900391"/>
      <use xlink:href="#DejaVuSans-7a" x="688.683594"/>
      <use xlink:href="#DejaVuSans-65" x="741.173828"/>
      <use xlink:href="#DejaVuSans-72" x="802.697266"/>
     </g>
    </g>
    <g id="line2d_23">
     <path d="M 109.758681 113.369062 
L 119.758681 113.369062 
L 129.758681 113.369062 
" style="fill: none; stroke: #8c564b; stroke-width: 1.5; stroke-linecap: square"/>
    </g>
    <g id="text_18">
     <!-- QHAdamOptimizer -->
     <g transform="translate(137.758681 116.869062) scale(0.1 -0.1)">
      <defs>
       <path id="DejaVuSans-48" d="M 628 4666 
L 1259 4666 
L 1259 2753 
L 3553 2753 
L 3553 4666 
L 4184 4666 
L 4184 0 
L 3553 0 
L 3553 2222 
L 1259 2222 
L 1259 0 
L 628 0 
L 628 4666 
z
" transform="scale(0.015625)"/>
      </defs>
      <use xlink:href="#DejaVuSans-51"/>
      <use xlink:href="#DejaVuSans-48" x="78.710938"/>
      <use xlink:href="#DejaVuSans-41" x="153.90625"/>
      <use xlink:href="#DejaVuSans-64" x="220.564453"/>
      <use xlink:href="#DejaVuSans-61" x="284.041016"/>
      <use xlink:href="#DejaVuSans-6d" x="345.320312"/>
      <use xlink:href="#DejaVuSans-4f" x="442.732422"/>
      <use xlink:href="#DejaVuSans-70" x="521.443359"/>
      <use xlink:href="#DejaVuSans-74" x="584.919922"/>
      <use xlink:href="#DejaVuSans-69" x="624.128906"/>
      <use xlink:href="#DejaVuSans-6d" x="651.912109"/>
      <use xlink:href="#DejaVuSans-69" x="749.324219"/>
      <use xlink:href="#DejaVuSans-7a" x="777.107422"/>
      <use xlink:href="#DejaVuSans-65" x="829.597656"/>
      <use xlink:href="#DejaVuSans-72" x="891.121094"/>
     </g>
    </g>
    <g id="line2d_24">
     <path d="M 109.758681 128.047187 
L 119.758681 128.047187 
L 129.758681 128.047187 
" style="fill: none; stroke: #e377c2; stroke-width: 1.5; stroke-linecap: square"/>
    </g>
    <g id="text_19">
     <!-- AdamaxOptimizer -->
     <g transform="translate(137.758681 131.547187) scale(0.1 -0.1)">
      <defs>
       <path id="DejaVuSans-78" d="M 3513 3500 
L 2247 1797 
L 3578 0 
L 2900 0 
L 1881 1375 
L 863 0 
L 184 0 
L 1544 1831 
L 300 3500 
L 978 3500 
L 1906 2253 
L 2834 3500 
L 3513 3500 
z
" transform="scale(0.015625)"/>
      </defs>
      <use xlink:href="#DejaVuSans-41"/>
      <use xlink:href="#DejaVuSans-64" x="66.658203"/>
      <use xlink:href="#DejaVuSans-61" x="130.134766"/>
      <use xlink:href="#DejaVuSans-6d" x="191.414062"/>
      <use xlink:href="#DejaVuSans-61" x="288.826172"/>
      <use xlink:href="#DejaVuSans-78" x="350.105469"/>
      <use xlink:href="#DejaVuSans-4f" x="409.285156"/>
      <use xlink:href="#DejaVuSans-70" x="487.996094"/>
      <use xlink:href="#DejaVuSans-74" x="551.472656"/>
      <use xlink:href="#DejaVuSans-69" x="590.681641"/>
      <use xlink:href="#DejaVuSans-6d" x="618.464844"/>
      <use xlink:href="#DejaVuSans-69" x="715.876953"/>
      <use xlink:href="#DejaVuSans-7a" x="743.660156"/>
      <use xlink:href="#DejaVuSans-65" x="796.150391"/>
      <use xlink:href="#DejaVuSans-72" x="857.673828"/>
     </g>
    </g>
   </g>
  </g>
  <g id="axes_2">
   <g id="patch_8">
    <path d="M 287.766667 174.04 
L 473.538473 174.04 
L 473.538473 26.88 
L 287.766667 26.88 
z
" style="fill: #ffffff"/>
   </g>
   <g id="matplotlib.axis_3">
    <g id="xtick_5">
     <g id="line2d_25">
      <g>
       <use xlink:href="#mdc3a87b105" x="296.21084" y="174.04" style="stroke: #000000; stroke-width: 0.8"/>
      </g>
     </g>
     <g id="text_20">
      <!-- 0 -->
      <g transform="translate(293.02959 188.638438) scale(0.1 -0.1)">
       <use xlink:href="#DejaVuSans-30"/>
      </g>
     </g>
    </g>
    <g id="xtick_6">
     <g id="line2d_26">
      <g>
       <use xlink:href="#mdc3a87b105" x="354.446515" y="174.04" style="stroke: #000000; stroke-width: 0.8"/>
      </g>
     </g>
     <g id="text_21">
      <!-- 10 -->
      <g transform="translate(348.084015 188.638438) scale(0.1 -0.1)">
       <use xlink:href="#DejaVuSans-31"/>
       <use xlink:href="#DejaVuSans-30" x="63.623047"/>
      </g>
     </g>
    </g>
    <g id="xtick_7">
     <g id="line2d_27">
      <g>
       <use xlink:href="#mdc3a87b105" x="412.682191" y="174.04" style="stroke: #000000; stroke-width: 0.8"/>
      </g>
     </g>
     <g id="text_22">
      <!-- 20 -->
      <g transform="translate(406.319691 188.638438) scale(0.1 -0.1)">
       <use xlink:href="#DejaVuSans-32"/>
       <use xlink:href="#DejaVuSans-30" x="63.623047"/>
      </g>
     </g>
    </g>
    <g id="xtick_8">
     <g id="line2d_28">
      <g>
       <use xlink:href="#mdc3a87b105" x="470.917867" y="174.04" style="stroke: #000000; stroke-width: 0.8"/>
      </g>
     </g>
     <g id="text_23">
      <!-- 30 -->
      <g transform="translate(464.555367 188.638438) scale(0.1 -0.1)">
       <use xlink:href="#DejaVuSans-33"/>
       <use xlink:href="#DejaVuSans-30" x="63.623047"/>
      </g>
     </g>
    </g>
    <g id="text_24">
     <!-- #iteration -->
     <g transform="translate(355.34007 202.316563) scale(0.1 -0.1)">
      <use xlink:href="#DejaVuSans-23"/>
      <use xlink:href="#DejaVuSans-69" x="83.789062"/>
      <use xlink:href="#DejaVuSans-74" x="111.572266"/>
      <use xlink:href="#DejaVuSans-65" x="150.78125"/>
      <use xlink:href="#DejaVuSans-72" x="212.304688"/>
      <use xlink:href="#DejaVuSans-61" x="253.417969"/>
      <use xlink:href="#DejaVuSans-74" x="314.697266"/>
      <use xlink:href="#DejaVuSans-69" x="353.90625"/>
      <use xlink:href="#DejaVuSans-6f" x="381.689453"/>
      <use xlink:href="#DejaVuSans-6e" x="442.871094"/>
     </g>
    </g>
   </g>
   <g id="matplotlib.axis_4">
    <g id="ytick_6">
     <g id="line2d_29">
      <g>
       <use xlink:href="#m0db7e5be7f" x="287.766667" y="167.350909" style="stroke: #000000; stroke-width: 0.8"/>
      </g>
     </g>
     <g id="text_25">
      <!-- −4.0 -->
      <g transform="translate(256.483854 171.150128) scale(0.1 -0.1)">
       <use xlink:href="#DejaVuSans-2212"/>
       <use xlink:href="#DejaVuSans-34" x="83.789062"/>
       <use xlink:href="#DejaVuSans-2e" x="147.412109"/>
       <use xlink:href="#DejaVuSans-30" x="179.199219"/>
      </g>
     </g>
    </g>
    <g id="ytick_7">
     <g id="line2d_30">
      <g>
       <use xlink:href="#m0db7e5be7f" x="287.766667" y="138.892245" style="stroke: #000000; stroke-width: 0.8"/>
      </g>
     </g>
     <g id="text_26">
      <!-- −3.5 -->
      <g transform="translate(256.483854 142.691464) scale(0.1 -0.1)">
       <defs>
        <path id="DejaVuSans-35" d="M 691 4666 
L 3169 4666 
L 3169 4134 
L 1269 4134 
L 1269 2991 
Q 1406 3038 1543 3061 
Q 1681 3084 1819 3084 
Q 2600 3084 3056 2656 
Q 3513 2228 3513 1497 
Q 3513 744 3044 326 
Q 2575 -91 1722 -91 
Q 1428 -91 1123 -41 
Q 819 9 494 109 
L 494 744 
Q 775 591 1075 516 
Q 1375 441 1709 441 
Q 2250 441 2565 725 
Q 2881 1009 2881 1497 
Q 2881 1984 2565 2268 
Q 2250 2553 1709 2553 
Q 1456 2553 1204 2497 
Q 953 2441 691 2322 
L 691 4666 
z
" transform="scale(0.015625)"/>
       </defs>
       <use xlink:href="#DejaVuSans-2212"/>
       <use xlink:href="#DejaVuSans-33" x="83.789062"/>
       <use xlink:href="#DejaVuSans-2e" x="147.412109"/>
       <use xlink:href="#DejaVuSans-35" x="179.199219"/>
      </g>
     </g>
    </g>
    <g id="ytick_8">
     <g id="line2d_31">
      <g>
       <use xlink:href="#m0db7e5be7f" x="287.766667" y="110.433582" style="stroke: #000000; stroke-width: 0.8"/>
      </g>
     </g>
     <g id="text_27">
      <!-- −3.0 -->
      <g transform="translate(256.483854 114.2328) scale(0.1 -0.1)">
       <use xlink:href="#DejaVuSans-2212"/>
       <use xlink:href="#DejaVuSans-33" x="83.789062"/>
       <use xlink:href="#DejaVuSans-2e" x="147.412109"/>
       <use xlink:href="#DejaVuSans-30" x="179.199219"/>
      </g>
     </g>
    </g>
    <g id="ytick_9">
     <g id="line2d_32">
      <g>
       <use xlink:href="#m0db7e5be7f" x="287.766667" y="81.974918" style="stroke: #000000; stroke-width: 0.8"/>
      </g>
     </g>
     <g id="text_28">
      <!-- −2.5 -->
      <g transform="translate(256.483854 85.774137) scale(0.1 -0.1)">
       <use xlink:href="#DejaVuSans-2212"/>
       <use xlink:href="#DejaVuSans-32" x="83.789062"/>
       <use xlink:href="#DejaVuSans-2e" x="147.412109"/>
       <use xlink:href="#DejaVuSans-35" x="179.199219"/>
      </g>
     </g>
    </g>
    <g id="ytick_10">
     <g id="line2d_33">
      <g>
       <use xlink:href="#m0db7e5be7f" x="287.766667" y="53.516254" style="stroke: #000000; stroke-width: 0.8"/>
      </g>
     </g>
     <g id="text_29">
      <!-- −2.0 -->
      <g transform="translate(256.483854 57.315473) scale(0.1 -0.1)">
       <use xlink:href="#DejaVuSans-2212"/>
       <use xlink:href="#DejaVuSans-32" x="83.789062"/>
       <use xlink:href="#DejaVuSans-2e" x="147.412109"/>
       <use xlink:href="#DejaVuSans-30" x="179.199219"/>
      </g>
     </g>
    </g>
   </g>
   <g id="line2d_34">
    <path d="M 296.21084 68.22081 
L 302.034407 75.591514 
L 307.857975 82.020521 
L 313.681542 88.128415 
L 319.50511 93.977744 
L 325.328678 100.07715 
L 331.152245 106.415126 
L 336.975813 112.399013 
L 342.79938 117.505275 
L 348.622948 121.865386 
L 354.446515 125.780744 
L 360.270083 129.223008 
L 366.093651 132.048083 
L 371.917218 134.14238 
L 377.740786 135.467322 
L 383.564353 136.115671 
L 389.387921 136.34931 
L 395.211489 136.52713 
L 401.035056 136.914618 
L 406.858624 137.557938 
L 412.682191 138.332182 
L 418.505759 139.057801 
L 424.329326 139.600324 
L 430.152894 139.932825 
L 435.976462 140.132256 
L 441.800029 140.299172 
L 447.623597 140.471448 
L 453.447164 140.615525 
L 459.270732 140.689095 
L 465.0943 140.703102 
" clip-path="url(#p5dc1bcca09)" style="fill: none; stroke: #1f77b4; stroke-width: 1.5; stroke-linecap: square"/>
   </g>
   <g id="line2d_35">
    <path d="M 296.21084 62.517273 
L 302.034407 75.862984 
L 307.857975 88.344717 
L 313.681542 97.886311 
L 319.50511 104.264091 
L 325.328678 109.0019 
L 331.152245 113.750139 
L 336.975813 119.435781 
L 342.79938 125.720902 
L 348.622948 131.426638 
L 354.446515 135.330336 
L 360.270083 136.842962 
L 366.093651 136.293493 
L 371.917218 134.675839 
L 377.740786 133.0488 
L 383.564353 132.041666 
L 389.387921 131.773645 
L 395.211489 132.060606 
L 401.035056 132.658121 
L 406.858624 133.408784 
L 412.682191 134.268283 
L 418.505759 135.248317 
L 424.329326 136.331573 
L 430.152894 137.411781 
L 435.976462 138.309643 
L 441.800029 138.862677 
L 447.623597 139.01383 
L 453.447164 138.835167 
L 459.270732 138.48861 
L 465.0943 138.151882 
" clip-path="url(#p5dc1bcca09)" style="fill: none; stroke: #ff7f0e; stroke-width: 1.5; stroke-linecap: square"/>
   </g>
   <g id="line2d_36">
    <path d="M 296.21084 33.569091 
L 302.034407 77.432375 
L 307.857975 101.632646 
L 313.681542 109.544043 
L 319.50511 127.664517 
L 325.328678 135.495046 
L 331.152245 131.966581 
L 336.975813 130.029374 
L 342.79938 140.403466 
L 348.622948 137.357262 
L 354.446515 139.154659 
L 360.270083 140.721997 
L 366.093651 140.956825 
L 371.917218 141.424428 
L 377.740786 141.280226 
L 383.564353 141.968218 
L 389.387921 142.804227 
L 395.211489 142.28333 
L 401.035056 142.639755 
L 406.858624 142.861982 
L 412.682191 142.787776 
L 418.505759 142.799971 
L 424.329326 142.968332 
L 430.152894 142.914514 
L 435.976462 142.947947 
L 441.800029 142.973279 
L 447.623597 142.982019 
L 453.447164 143.010821 
L 459.270732 143.01738 
L 465.0943 143.020854 
" clip-path="url(#p5dc1bcca09)" style="fill: none; stroke: #2ca02c; stroke-width: 1.5; stroke-linecap: square"/>
   </g>
   <g id="line2d_37">
    <path d="M 296.21084 83.231765 
L 302.034407 102.081701 
L 307.857975 116.57194 
L 313.681542 125.424815 
L 319.50511 130.41912 
L 325.328678 133.662132 
L 331.152245 136.195409 
L 336.975813 138.134693 
L 342.79938 139.422261 
L 348.622948 140.154701 
L 354.446515 140.521552 
L 360.270083 140.689142 
L 366.093651 140.762677 
L 371.917218 140.797327 
L 377.740786 140.818702 
L 383.564353 140.83881 
L 389.387921 140.864806 
L 395.211489 140.901208 
L 401.035056 140.949229 
L 406.858624 141.006737 
L 412.682191 141.069622 
L 418.505759 141.133505 
L 424.329326 141.194877 
L 430.152894 141.251599 
L 435.976462 141.302999 
L 441.800029 141.349691 
L 447.623597 141.393138 
L 453.447164 141.435104 
L 459.270732 141.477133 
L 465.0943 141.520232 
" clip-path="url(#p5dc1bcca09)" style="fill: none; stroke: #d62728; stroke-width: 1.5; stroke-linecap: square"/>
   </g>
   <g id="line2d_38">
    <path d="M 296.21084 54.349345 
L 302.034407 55.724004 
L 307.857975 57.108205 
L 313.681542 58.502592 
L 319.50511 58.690381 
L 325.328678 58.970375 
L 331.152245 59.325255 
L 336.975813 59.745008 
L 342.79938 60.222707 
L 348.622948 60.753155 
L 354.446515 61.332263 
L 360.270083 61.956725 
L 366.093651 62.623835 
L 371.917218 63.331377 
L 377.740786 64.077565 
L 383.564353 64.861011 
L 389.387921 65.6807 
L 395.211489 66.535972 
L 401.035056 67.426487 
L 406.858624 68.352186 
L 412.682191 69.313229 
L 418.505759 70.309925 
L 424.329326 71.342641 
L 430.152894 72.411702 
L 435.976462 73.517291 
L 441.800029 74.659359 
L 447.623597 75.837568 
L 453.447164 77.051283 
L 459.270732 78.29962 
L 465.0943 79.581555 
" clip-path="url(#p5dc1bcca09)" style="fill: none; stroke: #9467bd; stroke-width: 1.5; stroke-linecap: square"/>
   </g>
   <g id="line2d_39">
    <path d="M 296.21084 85.454644 
L 302.034407 95.864924 
L 307.857975 103.103915 
L 313.681542 108.621349 
L 319.50511 113.017207 
L 325.328678 116.729758 
L 331.152245 120.335421 
L 336.975813 124.148776 
L 342.79938 128.007197 
L 348.622948 131.440962 
L 354.446515 134.072601 
L 360.270083 135.876428 
L 366.093651 137.069939 
L 371.917218 137.874173 
L 377.740786 138.421776 
L 383.564353 138.790223 
L 389.387921 139.040483 
L 395.211489 139.221921 
L 401.035056 139.366434 
L 406.858624 139.489472 
L 412.682191 139.596131 
L 418.505759 139.684007 
L 424.329326 139.738863 
L 430.152894 139.751195 
L 435.976462 139.808914 
L 441.800029 139.90878 
L 447.623597 139.967685 
L 453.447164 140.000371 
L 459.270732 140.022936 
L 465.0943 140.039668 
" clip-path="url(#p5dc1bcca09)" style="fill: none; stroke: #8c564b; stroke-width: 1.5; stroke-linecap: square"/>
   </g>
   <g id="line2d_40">
    <path d="M 296.21084 85.448353 
L 302.034407 92.703844 
L 307.857975 100.238112 
L 313.681542 107.881905 
L 319.50511 115.042032 
L 325.328678 121.51959 
L 331.152245 127.132637 
L 336.975813 131.703745 
L 342.79938 134.999812 
L 348.622948 137.027736 
L 354.446515 138.091847 
L 360.270083 138.579143 
L 366.093651 138.775122 
L 371.917218 138.909307 
L 377.740786 139.055233 
L 383.564353 139.169868 
L 389.387921 139.216786 
L 395.211489 139.22468 
L 401.035056 139.249214 
L 406.858624 139.325809 
L 412.682191 139.456949 
L 418.505759 139.61639 
L 424.329326 139.763715 
L 430.152894 139.870056 
L 435.976462 139.93411 
L 441.800029 139.972586 
L 447.623597 140.000745 
L 453.447164 140.024414 
L 459.270732 140.043361 
L 465.0943 140.055929 
" clip-path="url(#p5dc1bcca09)" style="fill: none; stroke: #e377c2; stroke-width: 1.5; stroke-linecap: square"/>
   </g>
   <g id="line2d_41">
    <path d="M 287.766667 167.350909 
L 473.538473 167.350909 
" clip-path="url(#p5dc1bcca09)" style="fill: none; stroke-dasharray: 1.5,2.475; stroke-dashoffset: 0; stroke: #ff0000; stroke-width: 1.5"/>
   </g>
   <g id="patch_9">
    <path d="M 287.766667 174.04 
L 287.766667 26.88 
" style="fill: none; stroke: #000000; stroke-width: 0.8; stroke-linejoin: miter; stroke-linecap: square"/>
   </g>
   <g id="patch_10">
    <path d="M 473.538473 174.04 
L 473.538473 26.88 
" style="fill: none; stroke: #000000; stroke-width: 0.8; stroke-linejoin: miter; stroke-linecap: square"/>
   </g>
   <g id="patch_11">
    <path d="M 287.766667 174.04 
L 473.538473 174.04 
" style="fill: none; stroke: #000000; stroke-width: 0.8; stroke-linejoin: miter; stroke-linecap: square"/>
   </g>
   <g id="patch_12">
    <path d="M 287.766667 26.88 
L 473.538473 26.88 
" style="fill: none; stroke: #000000; stroke-width: 0.8; stroke-linejoin: miter; stroke-linecap: square"/>
   </g>
   <g id="text_30">
    <!-- QAOA -->
    <g transform="translate(363.20757 20.88) scale(0.12 -0.12)">
     <use xlink:href="#DejaVuSans-51"/>
     <use xlink:href="#DejaVuSans-41" x="78.710938"/>
     <use xlink:href="#DejaVuSans-4f" x="145.369141"/>
     <use xlink:href="#DejaVuSans-41" x="222.330078"/>
    </g>
   </g>
  </g>
  <g id="axes_3">
   <g id="patch_13">
    <path d="M 519.443333 174.04 
L 705.215139 174.04 
L 705.215139 26.88 
L 519.443333 26.88 
z
" style="fill: #ffffff"/>
   </g>
   <g id="matplotlib.axis_5">
    <g id="xtick_9">
     <g id="line2d_42">
      <g>
       <use xlink:href="#mdc3a87b105" x="527.887506" y="174.04" style="stroke: #000000; stroke-width: 0.8"/>
      </g>
     </g>
     <g id="text_31">
      <!-- 0 -->
      <g transform="translate(524.706256 188.638438) scale(0.1 -0.1)">
       <use xlink:href="#DejaVuSans-30"/>
      </g>
     </g>
    </g>
    <g id="xtick_10">
     <g id="line2d_43">
      <g>
       <use xlink:href="#mdc3a87b105" x="586.123182" y="174.04" style="stroke: #000000; stroke-width: 0.8"/>
      </g>
     </g>
     <g id="text_32">
      <!-- 10 -->
      <g transform="translate(579.760682 188.638438) scale(0.1 -0.1)">
       <use xlink:href="#DejaVuSans-31"/>
       <use xlink:href="#DejaVuSans-30" x="63.623047"/>
      </g>
     </g>
    </g>
    <g id="xtick_11">
     <g id="line2d_44">
      <g>
       <use xlink:href="#mdc3a87b105" x="644.358858" y="174.04" style="stroke: #000000; stroke-width: 0.8"/>
      </g>
     </g>
     <g id="text_33">
      <!-- 20 -->
      <g transform="translate(637.996358 188.638438) scale(0.1 -0.1)">
       <use xlink:href="#DejaVuSans-32"/>
       <use xlink:href="#DejaVuSans-30" x="63.623047"/>
      </g>
     </g>
    </g>
    <g id="xtick_12">
     <g id="line2d_45">
      <g>
       <use xlink:href="#mdc3a87b105" x="702.594534" y="174.04" style="stroke: #000000; stroke-width: 0.8"/>
      </g>
     </g>
     <g id="text_34">
      <!-- 30 -->
      <g transform="translate(696.232034 188.638438) scale(0.1 -0.1)">
       <use xlink:href="#DejaVuSans-33"/>
       <use xlink:href="#DejaVuSans-30" x="63.623047"/>
      </g>
     </g>
    </g>
    <g id="text_35">
     <!-- #iteration -->
     <g transform="translate(587.016736 202.316563) scale(0.1 -0.1)">
      <use xlink:href="#DejaVuSans-23"/>
      <use xlink:href="#DejaVuSans-69" x="83.789062"/>
      <use xlink:href="#DejaVuSans-74" x="111.572266"/>
      <use xlink:href="#DejaVuSans-65" x="150.78125"/>
      <use xlink:href="#DejaVuSans-72" x="212.304688"/>
      <use xlink:href="#DejaVuSans-61" x="253.417969"/>
      <use xlink:href="#DejaVuSans-74" x="314.697266"/>
      <use xlink:href="#DejaVuSans-69" x="353.90625"/>
      <use xlink:href="#DejaVuSans-6f" x="381.689453"/>
      <use xlink:href="#DejaVuSans-6e" x="442.871094"/>
     </g>
    </g>
   </g>
   <g id="matplotlib.axis_6">
    <g id="ytick_11">
     <g id="line2d_46">
      <g>
       <use xlink:href="#m0db7e5be7f" x="519.443333" y="167.350909" style="stroke: #000000; stroke-width: 0.8"/>
      </g>
     </g>
     <g id="text_36">
      <!-- 0.00 -->
      <g transform="translate(490.177708 171.150128) scale(0.1 -0.1)">
       <use xlink:href="#DejaVuSans-30"/>
       <use xlink:href="#DejaVuSans-2e" x="63.623047"/>
       <use xlink:href="#DejaVuSans-30" x="95.410156"/>
       <use xlink:href="#DejaVuSans-30" x="159.033203"/>
      </g>
     </g>
    </g>
    <g id="ytick_12">
     <g id="line2d_47">
      <g>
       <use xlink:href="#m0db7e5be7f" x="519.443333" y="141.310988" style="stroke: #000000; stroke-width: 0.8"/>
      </g>
     </g>
     <g id="text_37">
      <!-- 0.25 -->
      <g transform="translate(490.177708 145.110207) scale(0.1 -0.1)">
       <use xlink:href="#DejaVuSans-30"/>
       <use xlink:href="#DejaVuSans-2e" x="63.623047"/>
       <use xlink:href="#DejaVuSans-32" x="95.410156"/>
       <use xlink:href="#DejaVuSans-35" x="159.033203"/>
      </g>
     </g>
    </g>
    <g id="ytick_13">
     <g id="line2d_48">
      <g>
       <use xlink:href="#m0db7e5be7f" x="519.443333" y="115.271067" style="stroke: #000000; stroke-width: 0.8"/>
      </g>
     </g>
     <g id="text_38">
      <!-- 0.50 -->
      <g transform="translate(490.177708 119.070286) scale(0.1 -0.1)">
       <use xlink:href="#DejaVuSans-30"/>
       <use xlink:href="#DejaVuSans-2e" x="63.623047"/>
       <use xlink:href="#DejaVuSans-35" x="95.410156"/>
       <use xlink:href="#DejaVuSans-30" x="159.033203"/>
      </g>
     </g>
    </g>
    <g id="ytick_14">
     <g id="line2d_49">
      <g>
       <use xlink:href="#m0db7e5be7f" x="519.443333" y="89.231146" style="stroke: #000000; stroke-width: 0.8"/>
      </g>
     </g>
     <g id="text_39">
      <!-- 0.75 -->
      <g transform="translate(490.177708 93.030364) scale(0.1 -0.1)">
       <defs>
        <path id="DejaVuSans-37" d="M 525 4666 
L 3525 4666 
L 3525 4397 
L 1831 0 
L 1172 0 
L 2766 4134 
L 525 4134 
L 525 4666 
z
" transform="scale(0.015625)"/>
       </defs>
       <use xlink:href="#DejaVuSans-30"/>
       <use xlink:href="#DejaVuSans-2e" x="63.623047"/>
       <use xlink:href="#DejaVuSans-37" x="95.410156"/>
       <use xlink:href="#DejaVuSans-35" x="159.033203"/>
      </g>
     </g>
    </g>
    <g id="ytick_15">
     <g id="line2d_50">
      <g>
       <use xlink:href="#m0db7e5be7f" x="519.443333" y="63.191224" style="stroke: #000000; stroke-width: 0.8"/>
      </g>
     </g>
     <g id="text_40">
      <!-- 1.00 -->
      <g transform="translate(490.177708 66.990443) scale(0.1 -0.1)">
       <use xlink:href="#DejaVuSans-31"/>
       <use xlink:href="#DejaVuSans-2e" x="63.623047"/>
       <use xlink:href="#DejaVuSans-30" x="95.410156"/>
       <use xlink:href="#DejaVuSans-30" x="159.033203"/>
      </g>
     </g>
    </g>
    <g id="ytick_16">
     <g id="line2d_51">
      <g>
       <use xlink:href="#m0db7e5be7f" x="519.443333" y="37.151303" style="stroke: #000000; stroke-width: 0.8"/>
      </g>
     </g>
     <g id="text_41">
      <!-- 1.25 -->
      <g transform="translate(490.177708 40.950522) scale(0.1 -0.1)">
       <use xlink:href="#DejaVuSans-31"/>
       <use xlink:href="#DejaVuSans-2e" x="63.623047"/>
       <use xlink:href="#DejaVuSans-32" x="95.410156"/>
       <use xlink:href="#DejaVuSans-35" x="159.033203"/>
      </g>
     </g>
    </g>
   </g>
   <g id="line2d_52">
    <path d="M 527.887506 34.243334 
L 533.711074 56.588292 
L 539.534641 80.293355 
L 545.358209 103.75816 
L 551.181777 125.443017 
L 557.005344 142.271493 
L 562.828912 151.811148 
L 568.652479 154.306026 
L 574.476047 152.326021 
L 580.299615 148.728117 
L 586.123182 145.738138 
L 591.94675 144.362505 
L 597.770317 144.603772 
L 603.593885 146.050744 
L 609.417452 148.30177 
L 615.24102 151.035283 
L 621.064588 153.86383 
L 626.888155 156.30329 
L 632.711723 157.927578 
L 638.53529 158.56107 
L 644.358858 158.371284 
L 650.182426 157.774759 
L 656.005993 157.201367 
L 661.829561 156.901985 
L 667.653128 156.917313 
L 673.476696 157.166558 
L 679.300263 157.559454 
L 685.123831 158.051196 
L 690.947399 158.611792 
L 696.770966 159.167659 
" clip-path="url(#pa5e5d1165b)" style="fill: none; stroke: #1f77b4; stroke-width: 1.5; stroke-linecap: square"/>
   </g>
   <g id="line2d_53">
    <path d="M 527.887506 66.952702 
L 533.711074 78.561406 
L 539.534641 91.882736 
L 545.358209 106.549428 
L 551.181777 120.745499 
L 557.005344 133.286235 
L 562.828912 143.315434 
L 568.652479 149.933432 
L 574.476047 152.654672 
L 580.299615 152.041223 
L 586.123182 149.67832 
L 591.94675 147.333102 
L 597.770317 146.130626 
L 603.593885 146.361207 
L 609.417452 147.723394 
L 615.24102 149.642636 
L 621.064588 151.53108 
L 626.888155 152.9795 
L 632.711723 153.863116 
L 638.53529 154.32248 
L 644.358858 154.631175 
L 650.182426 155.030997 
L 656.005993 155.624036 
L 661.829561 156.365223 
L 667.653128 157.134286 
L 673.476696 157.823366 
L 679.300263 158.380496 
L 685.123831 158.794951 
L 690.947399 159.060047 
L 696.770966 159.157028 
" clip-path="url(#pa5e5d1165b)" style="fill: none; stroke: #ff7f0e; stroke-width: 1.5; stroke-linecap: square"/>
   </g>
   <g id="line2d_54">
    <path d="M 527.887506 45.484078 
L 533.711074 117.988708 
L 539.534641 150.701825 
L 545.358209 126.041475 
L 551.181777 123.054756 
L 557.005344 147.456224 
L 562.828912 147.049259 
L 568.652479 158.050009 
L 574.476047 153.355998 
L 580.299615 156.780514 
L 586.123182 155.824739 
L 591.94675 157.351896 
L 597.770317 158.209142 
L 603.593885 159.91968 
L 609.417452 158.941071 
L 615.24102 159.315666 
L 621.064588 158.757383 
L 626.888155 159.645036 
L 632.711723 159.953665 
L 638.53529 160.047565 
L 644.358858 159.935009 
L 650.182426 159.937823 
L 656.005993 160.204635 
L 661.829561 160.298337 
L 667.653128 160.303764 
L 673.476696 160.288025 
L 679.300263 160.267296 
L 685.123831 160.372363 
L 690.947399 160.363844 
L 696.770966 160.390475 
" clip-path="url(#pa5e5d1165b)" style="fill: none; stroke: #2ca02c; stroke-width: 1.5; stroke-linecap: square"/>
   </g>
   <g id="line2d_55">
    <path d="M 527.887506 115.642625 
L 533.711074 133.732848 
L 539.534641 143.173829 
L 545.358209 148.409127 
L 551.181777 151.228586 
L 557.005344 152.849577 
L 562.828912 154.090043 
L 568.652479 155.275777 
L 574.476047 156.421814 
L 580.299615 157.439082 
L 586.123182 158.247465 
L 591.94675 158.821655 
L 597.770317 159.196017 
L 603.593885 159.437045 
L 609.417452 159.607893 
L 615.24102 159.747161 
L 621.064588 159.867694 
L 626.888155 159.968051 
L 632.711723 160.045199 
L 638.53529 160.100937 
L 644.358858 160.14136 
L 650.182426 160.173078 
L 656.005993 160.200265 
L 661.829561 160.224239 
L 667.653128 160.244821 
L 673.476696 160.261819 
L 679.300263 160.275657 
L 685.123831 160.287146 
L 690.947399 160.297028 
L 696.770966 160.305732 
" clip-path="url(#pa5e5d1165b)" style="fill: none; stroke: #d62728; stroke-width: 1.5; stroke-linecap: square"/>
   </g>
   <g id="line2d_56">
    <path d="M 527.887506 68.548541 
L 533.711074 74.90705 
L 539.534641 81.243885 
L 545.358209 87.517301 
L 551.181777 87.844675 
L 557.005344 88.334371 
L 562.828912 88.956608 
L 568.652479 89.694294 
L 574.476047 90.535714 
L 580.299615 91.472123 
L 586.123182 92.496608 
L 591.94675 93.603449 
L 597.770317 94.787706 
L 603.593885 96.044941 
L 609.417452 97.371001 
L 615.24102 98.761851 
L 621.064588 100.213437 
L 626.888155 101.721571 
L 632.711723 103.28183 
L 638.53529 104.889475 
L 644.358858 106.539389 
L 650.182426 108.226032 
L 656.005993 109.943422 
L 661.829561 111.685141 
L 667.653128 113.444373 
L 673.476696 115.213978 
L 679.300263 116.986598 
L 685.123831 118.754795 
L 690.947399 120.511216 
L 696.770966 122.248757 
" clip-path="url(#pa5e5d1165b)" style="fill: none; stroke: #9467bd; stroke-width: 1.5; stroke-linecap: square"/>
   </g>
   <g id="line2d_57">
    <path d="M 527.887506 33.569091 
L 533.711074 51.650274 
L 539.534641 70.609629 
L 545.358209 88.661008 
L 551.181777 104.248276 
L 557.005344 117.69561 
L 562.828912 129.626998 
L 568.652479 139.781769 
L 574.476047 147.738242 
L 580.299615 153.340511 
L 586.123182 156.781179 
L 591.94675 158.564129 
L 597.770317 159.330965 
L 603.593885 159.613145 
L 609.417452 159.715798 
L 615.24102 159.768962 
L 621.064588 159.821249 
L 626.888155 159.891021 
L 632.711723 159.979985 
L 638.53529 160.0784 
L 644.358858 160.172689 
L 650.182426 160.252171 
L 656.005993 160.311777 
L 661.829561 160.351483 
L 667.653128 160.374492 
L 673.476696 160.38541 
L 679.300263 160.388885 
L 685.123831 160.388759 
L 690.947399 160.387697 
L 696.770966 160.38719 
" clip-path="url(#pa5e5d1165b)" style="fill: none; stroke: #8c564b; stroke-width: 1.5; stroke-linecap: square"/>
   </g>
   <g id="line2d_58">
    <path d="M 527.887506 71.245772 
L 533.711074 94.38753 
L 539.534641 113.505153 
L 545.358209 127.410228 
L 551.181777 136.669107 
L 557.005344 142.797556 
L 562.828912 147.120348 
L 568.652479 150.357176 
L 574.476047 152.806216 
L 580.299615 154.574018 
L 586.123182 155.757251 
L 591.94675 156.495303 
L 597.770317 156.948417 
L 603.593885 157.257902 
L 609.417452 157.5201 
L 615.24102 157.781528 
L 621.064588 158.049763 
L 626.888155 158.311137 
L 632.711723 158.547491 
L 638.53529 158.747193 
L 644.358858 158.908949 
L 650.182426 159.039784 
L 656.005993 159.150183 
L 661.829561 159.249428 
L 667.653128 159.342983 
L 673.476696 159.432292 
L 679.300263 159.51618 
L 685.123831 159.592714 
L 690.947399 159.660597 
L 696.770966 159.719729 
" clip-path="url(#pa5e5d1165b)" style="fill: none; stroke: #e377c2; stroke-width: 1.5; stroke-linecap: square"/>
   </g>
   <g id="line2d_59">
    <path d="M 519.443333 167.350909 
L 705.215139 167.350909 
" clip-path="url(#pa5e5d1165b)" style="fill: none; stroke-dasharray: 1.5,2.475; stroke-dashoffset: 0; stroke: #ff0000; stroke-width: 1.5"/>
   </g>
   <g id="patch_14">
    <path d="M 519.443333 174.04 
L 519.443333 26.88 
" style="fill: none; stroke: #000000; stroke-width: 0.8; stroke-linejoin: miter; stroke-linecap: square"/>
   </g>
   <g id="patch_15">
    <path d="M 705.215139 174.04 
L 705.215139 26.88 
" style="fill: none; stroke: #000000; stroke-width: 0.8; stroke-linejoin: miter; stroke-linecap: square"/>
   </g>
   <g id="patch_16">
    <path d="M 519.443333 174.04 
L 705.215139 174.04 
" style="fill: none; stroke: #000000; stroke-width: 0.8; stroke-linejoin: miter; stroke-linecap: square"/>
   </g>
   <g id="patch_17">
    <path d="M 519.443333 26.88 
L 705.215139 26.88 
" style="fill: none; stroke: #000000; stroke-width: 0.8; stroke-linejoin: miter; stroke-linecap: square"/>
   </g>
   <g id="text_42">
    <!-- Dynamic simulation -->
    <g transform="translate(552.685486 20.88) scale(0.12 -0.12)">
     <defs>
      <path id="DejaVuSans-44" d="M 1259 4147 
L 1259 519 
L 2022 519 
Q 2988 519 3436 956 
Q 3884 1394 3884 2338 
Q 3884 3275 3436 3711 
Q 2988 4147 2022 4147 
L 1259 4147 
z
M 628 4666 
L 1925 4666 
Q 3281 4666 3915 4102 
Q 4550 3538 4550 2338 
Q 4550 1131 3912 565 
Q 3275 0 1925 0 
L 628 0 
L 628 4666 
z
" transform="scale(0.015625)"/>
      <path id="DejaVuSans-79" d="M 2059 -325 
Q 1816 -950 1584 -1140 
Q 1353 -1331 966 -1331 
L 506 -1331 
L 506 -850 
L 844 -850 
Q 1081 -850 1212 -737 
Q 1344 -625 1503 -206 
L 1606 56 
L 191 3500 
L 800 3500 
L 1894 763 
L 2988 3500 
L 3597 3500 
L 2059 -325 
z
" transform="scale(0.015625)"/>
      <path id="DejaVuSans-63" d="M 3122 3366 
L 3122 2828 
Q 2878 2963 2633 3030 
Q 2388 3097 2138 3097 
Q 1578 3097 1268 2742 
Q 959 2388 959 1747 
Q 959 1106 1268 751 
Q 1578 397 2138 397 
Q 2388 397 2633 464 
Q 2878 531 3122 666 
L 3122 134 
Q 2881 22 2623 -34 
Q 2366 -91 2075 -91 
Q 1284 -91 818 406 
Q 353 903 353 1747 
Q 353 2603 823 3093 
Q 1294 3584 2113 3584 
Q 2378 3584 2631 3529 
Q 2884 3475 3122 3366 
z
" transform="scale(0.015625)"/>
      <path id="DejaVuSans-20" transform="scale(0.015625)"/>
      <path id="DejaVuSans-75" d="M 544 1381 
L 544 3500 
L 1119 3500 
L 1119 1403 
Q 1119 906 1312 657 
Q 1506 409 1894 409 
Q 2359 409 2629 706 
Q 2900 1003 2900 1516 
L 2900 3500 
L 3475 3500 
L 3475 0 
L 2900 0 
L 2900 538 
Q 2691 219 2414 64 
Q 2138 -91 1772 -91 
Q 1169 -91 856 284 
Q 544 659 544 1381 
z
M 1991 3584 
L 1991 3584 
z
" transform="scale(0.015625)"/>
      <path id="DejaVuSans-6c" d="M 603 4863 
L 1178 4863 
L 1178 0 
L 603 0 
L 603 4863 
z
" transform="scale(0.015625)"/>
     </defs>
     <use xlink:href="#DejaVuSans-44"/>
     <use xlink:href="#DejaVuSans-79" x="77.001953"/>
     <use xlink:href="#DejaVuSans-6e" x="136.181641"/>
     <use xlink:href="#DejaVuSans-61" x="199.560547"/>
     <use xlink:href="#DejaVuSans-6d" x="260.839844"/>
     <use xlink:href="#DejaVuSans-69" x="358.251953"/>
     <use xlink:href="#DejaVuSans-63" x="386.035156"/>
     <use xlink:href="#DejaVuSans-20" x="441.015625"/>
     <use xlink:href="#DejaVuSans-73" x="472.802734"/>
     <use xlink:href="#DejaVuSans-69" x="524.902344"/>
     <use xlink:href="#DejaVuSans-6d" x="552.685547"/>
     <use xlink:href="#DejaVuSans-75" x="650.097656"/>
     <use xlink:href="#DejaVuSans-6c" x="713.476562"/>
     <use xlink:href="#DejaVuSans-61" x="741.259766"/>
     <use xlink:href="#DejaVuSans-74" x="802.539062"/>
     <use xlink:href="#DejaVuSans-69" x="841.748047"/>
     <use xlink:href="#DejaVuSans-6f" x="869.53125"/>
     <use xlink:href="#DejaVuSans-6e" x="930.712891"/>
    </g>
   </g>
  </g>
 </g>
 <defs>
  <clipPath id="pa9a4fea1a1">
   <rect x="56.09" y="26.88" width="185.771806" height="147.16"/>
  </clipPath>
  <clipPath id="p5dc1bcca09">
   <rect x="287.766667" y="26.88" width="185.771806" height="147.16"/>
  </clipPath>
  <clipPath id="pa5e5d1165b">
   <rect x="519.443333" y="26.88" width="185.771806" height="147.16"/>
  </clipPath>
 </defs>
</svg>
